<svg width="200" height="150" viewBox="0 0 800 600" fill="none" xmlns="http://www.w3.org/2000/svg" data-reactroot="">
<g clip-path="url(#clip0)">
<path d="M233.535 456.355C193.193 486.918 59.8371 511.877 -1.79785 520.536V600H802V535.818C758.194 509.331 654.688 453.91 591.118 444.13C511.655 431.905 427.608 334.104 393.989 334.104C360.37 334.104 283.963 418.152 233.535 456.355Z" fill="#2249B3" stroke="#414042" stroke-width="1"></path>
<path d="M180.63 527.762C198.555 527.762 213.086 513.231 213.086 495.306C213.086 477.381 198.555 462.851 180.63 462.851C162.706 462.851 148.175 477.381 148.175 495.306C148.175 513.231 162.706 527.762 180.63 527.762Z" fill="#ffcc00" stroke="#414042" stroke-width="1"></path>
<path d="M180.63 524.3C196.643 524.3 209.625 511.319 209.625 495.306C209.625 479.293 196.643 466.312 180.63 466.312C164.617 466.312 151.636 479.293 151.636 495.306C151.636 511.319 164.617 524.3 180.63 524.3Z" stroke="#414042" stroke-width="1" stroke-miterlimit="10"></path>
<path d="M57.9409 85.3135C75.8656 85.3135 90.3965 70.7826 90.3965 52.8579C90.3965 34.9332 75.8656 20.4023 57.9409 20.4023C40.0162 20.4023 25.4854 34.9332 25.4854 52.8579C25.4854 70.7826 40.0162 85.3135 57.9409 85.3135Z" fill="#ffcc00" stroke="#414042" stroke-width="1"></path>
<path d="M57.9407 81.8521C73.9539 81.8521 86.9351 68.8709 86.9351 52.8577C86.9351 36.8445 73.9539 23.8633 57.9407 23.8633C41.9275 23.8633 28.9463 36.8445 28.9463 52.8577C28.9463 68.8709 41.9275 81.8521 57.9407 81.8521Z" stroke="#414042" stroke-width="1" stroke-miterlimit="10"></path>
<path d="M284.399 311.66C319.175 311.66 347.367 283.468 347.367 248.692C347.367 213.916 319.175 185.724 284.399 185.724C249.623 185.724 221.431 213.916 221.431 248.692C221.431 283.468 249.623 311.66 284.399 311.66Z" fill="#ffcc00" stroke="#414042" stroke-width="1"></path>
<path d="M284.399 304.945C315.467 304.945 340.652 279.76 340.652 248.692C340.652 217.624 315.467 192.439 284.399 192.439C253.331 192.439 228.146 217.624 228.146 248.692C228.146 279.76 253.331 304.945 284.399 304.945Z" stroke="#414042" stroke-width="1" stroke-miterlimit="10"></path>
<path d="M649.877 448.145C660.15 448.145 668.478 439.817 668.478 429.544C668.478 419.271 660.15 410.943 649.877 410.943C639.604 410.943 631.276 419.271 631.276 429.544C631.276 439.817 639.604 448.145 649.877 448.145Z" fill="#ffcc00" stroke="#414042" stroke-width="1"></path>
<path d="M649.877 446.161C659.055 446.161 666.494 438.721 666.494 429.544C666.494 420.366 659.055 412.926 649.877 412.926C640.7 412.926 633.26 420.366 633.26 429.544C633.26 438.721 640.7 446.161 649.877 446.161Z" stroke="#414042" stroke-width="1" stroke-miterlimit="10"></path>
<path d="M599.908 184.43C601.331 193.671 617.321 198.878 635.623 196.059C653.924 193.241 667.607 183.465 666.184 174.224C664.761 164.983 648.771 159.776 630.47 162.595C612.168 165.413 598.485 175.189 599.908 184.43Z" fill="#ffcc00" stroke="#414042" stroke-width="1"></path>
<path d="M603.442 183.886C604.713 192.141 618.998 196.793 635.347 194.275C651.697 191.757 663.921 183.024 662.65 174.768C661.378 166.513 647.094 161.861 630.744 164.379C614.394 166.897 602.17 175.63 603.442 183.886Z" stroke="#414042" stroke-width="1" stroke-miterlimit="10"></path>
<path d="M487.239 97.4382C503.833 97.4382 517.285 83.986 517.285 67.392C517.285 50.7979 503.833 37.3457 487.239 37.3457C470.645 37.3457 457.192 50.7979 457.192 67.392C457.192 83.986 470.645 97.4382 487.239 97.4382Z" fill="#ffcc00" stroke="#414042" stroke-width="1"></path>
<path d="M487.239 94.2339C502.063 94.2339 514.081 82.2163 514.081 67.3918C514.081 52.5674 502.063 40.5498 487.239 40.5498C472.414 40.5498 460.396 52.5674 460.396 67.3918C460.396 82.2163 472.414 94.2339 487.239 94.2339Z" stroke="#414042" stroke-width="1" stroke-miterlimit="10"></path>
<path d="M140.993 238.486C145.946 226.839 147.157 216.204 143.697 214.732C140.237 213.261 133.417 221.511 128.464 233.158C123.511 244.806 122.301 255.441 125.761 256.912C129.221 258.384 136.041 250.134 140.993 238.486Z" fill="#ffcc00" stroke="#414042" stroke-width="1"></path>
<path d="M140.325 238.202C144.75 227.797 145.831 218.296 142.74 216.982C139.649 215.667 133.556 223.037 129.132 233.443C124.707 243.848 123.626 253.349 126.717 254.663C129.808 255.978 135.9 248.608 140.325 238.202Z" stroke="#414042" stroke-width="1" stroke-miterlimit="10"></path>
<path d="M744.165 393.119C747.27 390.999 744.003 380.806 736.867 370.353C729.731 359.899 721.429 353.143 718.324 355.263C715.218 357.382 718.486 367.575 725.622 378.029C732.758 388.482 741.06 395.238 744.165 393.119Z" fill="#ffcc00" stroke="#414042" stroke-width="1"></path>
<path d="M742.787 391.1C745.561 389.207 742.642 380.101 736.267 370.762C729.892 361.423 722.476 355.388 719.702 357.281C716.928 359.175 719.847 368.281 726.221 377.62C732.596 386.958 740.013 392.994 742.787 391.1Z" stroke="#414042" stroke-width="1" stroke-miterlimit="10"></path>
<path d="M75.6873 536.897C78.7926 534.777 75.5251 524.584 68.3893 514.13C61.2534 503.677 52.9514 496.921 49.8462 499.04C46.7409 501.16 50.0084 511.353 57.1442 521.807C64.2801 532.26 72.5821 539.016 75.6873 536.897Z" fill="#ffcc00" stroke="#414042" stroke-width="1"></path>
<path d="M74.3095 534.878C77.0836 532.984 74.1646 523.878 67.7897 514.539C61.4149 505.201 53.9982 499.165 51.2241 501.059C48.45 502.952 51.369 512.058 57.7439 521.397C64.1187 530.736 71.5354 536.771 74.3095 534.878Z" stroke="#414042" stroke-width="1" stroke-miterlimit="10"></path>
<path d="M283.287 134.913C287.799 133.839 289.563 125.014 287.227 115.203C284.891 105.391 279.339 98.3086 274.827 99.3829C270.315 100.457 268.551 109.282 270.887 119.093C273.223 128.905 278.775 135.988 283.287 134.913Z" fill="#ffcc00" stroke="#414042" stroke-width="1"></path>
<path d="M282.836 133.019C286.867 132.059 288.442 124.176 286.355 115.411C284.269 106.646 279.309 100.318 275.278 101.278C271.247 102.238 269.671 110.121 271.758 118.886C273.845 127.651 278.805 133.979 282.836 133.019Z" stroke="#414042" stroke-width="1" stroke-miterlimit="10"></path>
<path d="M454.495 276.858C458.885 278.357 465.085 271.835 468.344 262.29C471.604 252.745 470.688 243.793 466.298 242.294C461.909 240.795 455.708 247.317 452.449 256.862C449.19 266.407 450.106 275.359 454.495 276.858Z" fill="#ffcc00" stroke="#414042" stroke-width="1"></path>
<path d="M455.124 275.015C459.046 276.354 464.585 270.528 467.496 262.001C470.408 253.474 469.59 245.476 465.668 244.137C461.747 242.798 456.208 248.625 453.296 257.152C450.385 265.679 451.203 273.676 455.124 275.015Z" stroke="#414042" stroke-width="1" stroke-miterlimit="10"></path>
<path d="M603.435 306.375C612.345 306.375 619.568 299.152 619.568 290.242C619.568 281.332 612.345 274.109 603.435 274.109C594.525 274.109 587.302 281.332 587.302 290.242C587.302 299.152 594.525 306.375 603.435 306.375Z" fill="#ffcc00" stroke="#414042" stroke-width="1"></path>
<path d="M603.435 304.655C611.395 304.655 617.847 298.202 617.847 290.243C617.847 282.283 611.395 275.83 603.435 275.83C595.475 275.83 589.022 282.283 589.022 290.243C589.022 298.202 595.475 304.655 603.435 304.655Z" stroke="#414042" stroke-width="1" stroke-miterlimit="10"></path>
<path d="M716.831 61.1452C725.741 61.1452 732.964 53.9223 732.964 45.0123C732.964 36.1023 725.741 28.8794 716.831 28.8794C707.921 28.8794 700.698 36.1023 700.698 45.0123C700.698 53.9223 707.921 61.1452 716.831 61.1452Z" fill="#ffcc00" stroke="#414042" stroke-width="1"></path>
<path d="M716.831 59.425C724.791 59.425 731.244 52.9723 731.244 45.0125C731.244 37.0528 724.791 30.6001 716.831 30.6001C708.872 30.6001 702.419 37.0528 702.419 45.0125C702.419 52.9723 708.872 59.425 716.831 59.425Z" stroke="#414042" stroke-width="1" stroke-miterlimit="10"></path>
<path d="M62.7667 380.574C71.6766 380.574 78.8996 373.351 78.8996 364.441C78.8996 355.532 71.6766 348.309 62.7667 348.309C53.8567 348.309 46.6338 355.532 46.6338 364.441C46.6338 373.351 53.8567 380.574 62.7667 380.574Z" fill="#ffcc00" stroke="#414042" stroke-width="1"></path>
<path d="M62.7669 378.854C70.7267 378.854 77.1794 372.402 77.1794 364.442C77.1794 356.482 70.7267 350.029 62.7669 350.029C54.8072 350.029 48.3545 356.482 48.3545 364.442C48.3545 372.402 54.8072 378.854 62.7669 378.854Z" stroke="#414042" stroke-width="1" stroke-miterlimit="10"></path>
<path d="M456.83 516.404C457.969 516.416 459.101 516.424 460.231 516.367C461.361 516.34 462.488 516.282 463.608 516.176C465.848 515.969 468.076 515.67 470.239 515.126C472.401 514.597 474.514 513.845 476.423 512.722C478.344 511.616 479.99 510.05 481.213 508.126C480.788 509.186 480.162 510.163 479.436 511.066C478.686 511.952 477.786 512.701 476.837 513.371C474.924 514.71 472.708 515.529 470.478 516.097C468.233 516.635 465.939 516.914 463.648 516.941C461.36 516.975 459.069 516.844 456.83 516.404Z" fill="#B5CDFB" stroke="#414042" stroke-width="1"></path>
<path d="M507.252 442.851C508.391 442.863 509.522 442.871 510.653 442.814C511.783 442.787 512.91 442.729 514.03 442.624C516.27 442.416 518.498 442.118 520.661 441.574C522.823 441.044 524.936 440.292 526.845 439.169C528.766 438.063 530.412 436.498 531.635 434.574C531.21 435.633 530.584 436.61 529.858 437.513C529.108 438.399 528.208 439.148 527.259 439.818C525.346 441.158 523.13 441.976 520.9 442.544C518.655 443.083 516.361 443.361 514.07 443.388C511.782 443.422 509.491 443.291 507.252 442.851Z" fill="#B5CDFB" stroke="#414042" stroke-width="1"></path>
<path d="M591.243 578.912C592.382 578.923 593.514 578.932 594.644 578.875C595.774 578.848 596.901 578.79 598.021 578.684C600.261 578.477 602.489 578.178 604.652 577.634C606.814 577.105 608.927 576.353 610.837 575.23C612.757 574.124 614.403 572.558 615.626 570.634C615.201 571.693 614.575 572.671 613.849 573.574C613.099 574.46 612.199 575.208 611.25 575.878C609.337 577.218 607.121 578.037 604.891 578.604C602.646 579.143 600.352 579.421 598.061 579.449C595.773 579.482 593.482 579.352 591.243 578.912Z" fill="#B5CDFB" stroke="#414042" stroke-width="1"></path>
<path d="M448.915 572.388C450.054 572.399 451.186 572.408 452.316 572.351C453.446 572.324 454.573 572.266 455.693 572.16C457.933 571.953 460.161 571.654 462.324 571.11C464.486 570.581 466.599 569.829 468.508 568.706C470.429 567.6 472.075 566.034 473.298 564.11C472.873 565.169 472.247 566.147 471.521 567.05C470.771 567.936 469.871 568.685 468.922 569.354C467.009 570.694 464.793 571.513 462.563 572.081C460.318 572.619 458.024 572.897 455.733 572.925C453.445 572.958 451.154 572.828 448.915 572.388Z" fill="#B5CDFB" stroke="#414042" stroke-width="1"></path>
<path d="M415.127 487.52C416.266 487.531 417.397 487.54 418.528 487.482C419.658 487.456 420.785 487.397 421.905 487.292C424.145 487.084 426.373 486.786 428.536 486.242C430.698 485.713 432.811 484.96 434.72 483.838C436.641 482.732 438.287 481.166 439.51 479.242C439.085 480.301 438.459 481.279 437.733 482.182C436.983 483.068 436.083 483.816 435.134 484.486C433.221 485.826 431.005 486.645 428.775 487.212C426.53 487.751 424.236 488.029 421.945 488.057C419.657 488.09 417.366 487.959 415.127 487.52Z" fill="#B5CDFB" stroke="#414042" stroke-width="1"></path>
<path d="M398.549 372.719C399.688 372.731 400.819 372.739 401.95 372.682C403.079 372.655 404.206 372.597 405.327 372.492C407.567 372.284 409.795 371.986 411.958 371.442C414.12 370.913 416.233 370.16 418.142 369.038C420.063 367.932 421.709 366.366 422.932 364.442C422.506 365.501 421.881 366.479 421.155 367.381C420.405 368.268 419.505 369.016 418.556 369.686C416.643 371.026 414.427 371.844 412.197 372.412C409.952 372.951 407.658 373.229 405.367 373.256C403.079 373.29 400.788 373.159 398.549 372.719Z" fill="#B5CDFB" stroke="#414042" stroke-width="1"></path>
<path d="M374.166 549.862C375.305 549.874 376.437 549.882 377.567 549.825C378.697 549.798 379.824 549.74 380.944 549.635C383.184 549.427 385.412 549.129 387.575 548.585C389.737 548.056 391.85 547.303 393.759 546.181C395.68 545.075 397.326 543.509 398.549 541.585C398.124 542.644 397.498 543.622 396.772 544.524C396.022 545.411 395.122 546.159 394.173 546.829C392.26 548.169 390.044 548.987 387.814 549.555C385.569 550.094 383.275 550.372 380.984 550.399C378.696 550.433 376.405 550.302 374.166 549.862Z" fill="#B5CDFB" stroke="#414042" stroke-width="1"></path>
<path d="M318.413 591.62C319.552 591.631 320.684 591.64 321.814 591.583C322.944 591.556 324.071 591.498 325.191 591.392C327.431 591.185 329.659 590.886 331.822 590.342C333.984 589.813 336.097 589.061 338.006 587.938C339.927 586.832 341.573 585.266 342.796 583.342C342.371 584.401 341.745 585.379 341.019 586.282C340.269 587.168 339.369 587.917 338.42 588.586C336.507 589.926 334.291 590.745 332.061 591.312C329.816 591.851 327.522 592.129 325.231 592.157C322.943 592.19 320.652 592.06 318.413 591.62Z" fill="#B5CDFB" stroke="#414042" stroke-width="1"></path>
<path d="M262.814 531.793C263.953 531.805 265.085 531.813 266.216 531.756C267.345 531.729 268.472 531.671 269.593 531.566C271.833 531.358 274.06 531.06 276.224 530.516C278.385 529.987 280.498 529.234 282.408 528.112C284.329 527.006 285.974 525.44 287.197 523.516C286.772 524.575 286.147 525.553 285.42 526.456C284.67 527.342 283.77 528.09 282.822 528.76C280.908 530.1 278.692 530.918 276.462 531.486C274.217 532.025 271.923 532.303 269.633 532.331C267.345 532.364 265.053 532.233 262.814 531.793Z" fill="#B5CDFB" stroke="#414042" stroke-width="1"></path>
<path d="M250.623 578.912C251.762 578.923 252.894 578.932 254.024 578.875C255.154 578.848 256.281 578.79 257.401 578.684C259.641 578.477 261.869 578.178 264.032 577.634C266.194 577.105 268.307 576.353 270.216 575.23C272.137 574.124 273.783 572.558 275.006 570.634C274.581 571.693 273.955 572.671 273.229 573.574C272.479 574.46 271.579 575.208 270.63 575.878C268.717 577.218 266.501 578.037 264.271 578.604C262.026 579.143 259.732 579.421 257.441 579.449C255.153 579.482 252.862 579.352 250.623 578.912Z" fill="#B5CDFB" stroke="#414042" stroke-width="1"></path>
<path d="M135.981 545.614C137.12 545.626 138.252 545.634 139.383 545.577C140.512 545.55 141.639 545.492 142.76 545.387C145 545.179 147.227 544.881 149.391 544.337C151.553 543.808 153.665 543.055 155.575 541.933C157.496 540.827 159.141 539.261 160.364 537.337C159.939 538.396 159.314 539.374 158.587 540.276C157.837 541.163 156.937 541.911 155.989 542.581C154.075 543.921 151.859 544.739 149.63 545.307C147.384 545.846 145.09 546.124 142.8 546.151C140.512 546.185 138.22 546.054 135.981 545.614Z" fill="#B5CDFB" stroke="#414042" stroke-width="1"></path>
<path d="M527.551 536.041C528.69 536.053 529.821 536.061 530.952 536.004C532.081 535.978 533.208 535.919 534.329 535.814C536.569 535.606 538.797 535.308 540.96 534.764C543.122 534.235 545.235 533.482 547.144 532.36C549.065 531.254 550.711 529.688 551.934 527.764C551.508 528.823 550.883 529.801 550.157 530.704C549.407 531.59 548.506 532.338 547.558 533.008C545.645 534.348 543.429 535.166 541.199 535.734C538.954 536.273 536.659 536.551 534.369 536.579C532.081 536.612 529.79 536.481 527.551 536.041Z" fill="#B5CDFB" stroke="#414042" stroke-width="1"></path>
<path d="M660.924 558.841C662.063 558.853 663.194 558.861 664.325 558.804C665.454 558.777 666.581 558.719 667.702 558.614C669.942 558.406 672.17 558.108 674.333 557.564C676.495 557.035 678.608 556.282 680.517 555.16C682.438 554.054 684.084 552.488 685.307 550.564C684.881 551.623 684.256 552.601 683.53 553.503C682.78 554.39 681.88 555.138 680.931 555.808C679.018 557.148 676.802 557.966 674.572 558.534C672.327 559.073 670.033 559.351 667.742 559.378C665.454 559.412 663.163 559.281 660.924 558.841Z" fill="#B5CDFB" stroke="#414042" stroke-width="1"></path>
<path d="M751.103 578.912C752.241 578.923 753.373 578.932 754.504 578.875C755.633 578.848 756.76 578.79 757.881 578.684C760.121 578.477 762.348 578.178 764.512 577.634C766.674 577.105 768.786 576.353 770.696 575.23C772.617 574.124 774.262 572.558 775.485 570.634C775.06 571.693 774.435 572.671 773.708 573.574C772.958 574.46 772.058 575.208 771.11 575.878C769.196 577.218 766.98 578.037 764.751 578.604C762.505 579.143 760.211 579.421 757.921 579.449C755.633 579.482 753.341 579.352 751.103 578.912Z" fill="#B5CDFB" stroke="#414042" stroke-width="1"></path>
<path d="M171.3 583.16C172.439 583.171 173.57 583.18 174.701 583.123C175.83 583.096 176.957 583.038 178.078 582.932C180.318 582.725 182.546 582.426 184.709 581.882C186.871 581.353 188.984 580.601 190.893 579.478C192.814 578.372 194.46 576.806 195.683 574.882C195.257 575.941 194.632 576.919 193.906 577.822C193.156 578.708 192.255 579.457 191.307 580.126C189.394 581.466 187.178 582.285 184.948 582.853C182.703 583.391 180.409 583.669 178.118 583.697C175.83 583.73 173.539 583.6 171.3 583.16Z" fill="#B5CDFB" stroke="#414042" stroke-width="1"></path>
<path d="M222.012 482.229C223.151 482.241 224.282 482.25 225.413 482.192C226.542 482.166 227.669 482.107 228.79 482.002C231.03 481.794 233.257 481.496 235.421 480.952C237.583 480.423 239.696 479.67 241.605 478.548C243.526 477.442 245.172 475.876 246.395 473.952C245.969 475.011 245.344 475.989 244.618 476.892C243.868 477.778 242.967 478.526 242.019 479.196C240.106 480.536 237.89 481.354 235.66 481.922C233.415 482.461 231.12 482.739 228.83 482.767C226.542 482.8 224.251 482.669 222.012 482.229Z" fill="#B5CDFB" stroke="#414042" stroke-width="1"></path>
<path d="M222.012 518.739C223.151 518.751 224.282 518.759 225.413 518.702C226.542 518.675 227.669 518.617 228.79 518.512C231.03 518.304 233.257 518.006 235.421 517.462C237.583 516.933 239.696 516.18 241.605 515.058C243.526 513.952 245.172 512.386 246.395 510.462C245.969 511.521 245.344 512.499 244.618 513.401C243.868 514.288 242.967 515.036 242.019 515.706C240.106 517.046 237.89 517.864 235.66 518.432C233.415 518.971 231.12 519.249 228.83 519.276C226.542 519.31 224.251 519.179 222.012 518.739Z" fill="#B5CDFB" stroke="#414042" stroke-width="1"></path>
<path d="M326.702 483.271C327.841 483.283 328.973 483.292 330.103 483.234C331.233 483.208 332.36 483.149 333.48 483.044C335.72 482.836 337.948 482.538 340.111 481.994C342.273 481.465 344.386 480.712 346.296 479.59C348.216 478.484 349.862 476.918 351.085 474.994C350.66 476.053 350.034 477.031 349.308 477.934C348.558 478.82 347.658 479.568 346.709 480.238C344.796 481.578 342.58 482.396 340.35 482.964C338.105 483.503 335.811 483.781 333.52 483.809C331.232 483.842 328.941 483.711 326.702 483.271Z" fill="#B5CDFB" stroke="#414042" stroke-width="1"></path>
<path d="M444.639 414.81C445.778 414.822 446.909 414.83 448.04 414.773C449.169 414.746 450.296 414.688 451.417 414.583C453.657 414.375 455.884 414.077 458.048 413.533C460.21 413.003 462.323 412.251 464.232 411.128C466.153 410.022 467.799 408.457 469.022 406.533C468.596 407.592 467.971 408.569 467.245 409.472C466.495 410.358 465.594 411.107 464.646 411.777C462.733 413.117 460.517 413.935 458.287 414.503C456.042 415.042 453.747 415.32 451.457 415.347C449.169 415.381 446.878 415.25 444.639 414.81Z" fill="#B5CDFB" stroke="#414042" stroke-width="1"></path>
<path d="M306.222 461.837C307.361 461.849 308.492 461.857 309.623 461.8C310.752 461.773 311.879 461.715 313 461.609C315.24 461.402 317.467 461.104 319.631 460.56C321.793 460.03 323.906 459.278 325.815 458.155C327.736 457.049 329.382 455.483 330.605 453.56C330.179 454.619 329.554 455.596 328.828 456.499C328.078 457.385 327.177 458.134 326.229 458.804C324.316 460.144 322.1 460.962 319.87 461.53C317.625 462.068 315.33 462.347 313.04 462.374C310.752 462.408 308.461 462.277 306.222 461.837Z" fill="#B5CDFB" stroke="#414042" stroke-width="1"></path>
<path d="M22.25 569.134C23.3889 569.146 24.5205 569.154 25.6513 569.097C26.7806 569.07 27.9076 569.012 29.0283 568.906C31.2682 568.699 33.4957 568.4 35.6592 567.856C37.8211 567.327 39.934 566.575 41.8434 565.452C43.7641 564.346 45.4099 562.78 46.633 560.856C46.2076 561.916 45.5822 562.893 44.8559 563.796C44.1059 564.682 43.2057 565.431 42.2571 566.101C40.3439 567.44 38.128 568.259 35.8981 568.827C33.6528 569.365 31.3587 569.644 29.0683 569.671C26.7802 569.705 24.4889 569.574 22.25 569.134Z" fill="#B5CDFB" stroke="#414042" stroke-width="1"></path>
<path d="M50.5752 587.408C51.7141 587.419 52.8457 587.428 53.9765 587.371C55.1058 587.344 56.2328 587.286 57.3535 587.18C59.5934 586.973 61.8209 586.674 63.9844 586.13C66.1463 585.601 68.2592 584.849 70.1686 583.726C72.0893 582.62 73.7351 581.054 74.9582 579.13C74.5328 580.189 73.9074 581.167 73.1811 582.07C72.4311 582.956 71.5309 583.705 70.5823 584.375C68.6691 585.714 66.4532 586.533 64.2233 587.101C61.978 587.639 59.6839 587.917 57.3935 587.945C55.1053 587.979 52.8141 587.848 50.5752 587.408Z" fill="#B5CDFB" stroke="#414042" stroke-width="1"></path>
<path d="M89.8545 554.593C90.9933 554.605 92.125 554.613 93.2558 554.556C94.3851 554.529 95.5121 554.471 96.6328 554.366C98.8727 554.158 101.1 553.86 103.264 553.316C105.426 552.787 107.538 552.034 109.448 550.912C111.369 549.806 113.014 548.24 114.237 546.316C113.812 547.375 113.187 548.353 112.46 549.255C111.71 550.142 110.81 550.89 109.862 551.56C107.948 552.9 105.732 553.718 103.503 554.286C101.257 554.825 98.9632 555.103 96.6728 555.13C94.3846 555.164 92.0934 555.033 89.8545 554.593Z" fill="#B5CDFB" stroke="#414042" stroke-width="1"></path>
<path d="M135.981 587.372C137.12 587.383 138.252 587.392 139.383 587.334C140.512 587.308 141.639 587.25 142.76 587.144C145 586.937 147.227 586.638 149.391 586.094C151.553 585.565 153.665 584.812 155.575 583.69C157.496 582.584 159.141 581.018 160.364 579.094C159.939 580.153 159.314 581.131 158.587 582.034C157.837 582.92 156.937 583.668 155.989 584.338C154.075 585.678 151.859 586.497 149.63 587.064C147.384 587.603 145.09 587.881 142.8 587.909C140.512 587.942 138.22 587.812 135.981 587.372Z" fill="#B5CDFB" stroke="#414042" stroke-width="1"></path>
<path d="M591.243 541.366C592.382 541.378 593.514 541.386 594.644 541.329C595.774 541.302 596.901 541.244 598.021 541.139C600.261 540.931 602.489 540.633 604.652 540.089C606.814 539.56 608.927 538.807 610.837 537.685C612.757 536.579 614.403 535.013 615.626 533.089C615.201 534.148 614.575 535.125 613.849 536.028C613.099 536.915 612.199 537.663 611.25 538.333C609.337 539.673 607.121 540.491 604.891 541.059C602.646 541.598 600.352 541.876 598.061 541.903C595.773 541.937 593.482 541.806 591.243 541.366Z" fill="#B5CDFB" stroke="#414042" stroke-width="1"></path>
<path d="M469.021 481.403C472.343 481.495 475.642 481.345 478.908 481.052C482.168 480.722 485.409 480.222 488.523 479.307C491.649 478.44 494.643 477.139 497.315 475.332C498.633 474.405 499.868 473.355 500.981 472.166C502.098 470.976 503.013 469.612 503.878 468.188C503.323 469.757 502.515 471.24 501.554 472.635C500.538 473.986 499.348 475.217 498.017 476.279C495.337 478.392 492.183 479.832 488.939 480.758C485.684 481.682 482.327 482.129 478.98 482.225C475.635 482.323 472.282 482.076 469.021 481.403Z" fill="#B5CDFB" stroke="#414042" stroke-width="1"></path>
<path d="M196.926 552.029C200.005 553.277 203.147 554.293 206.309 555.163C209.478 555.995 212.689 556.662 215.927 556.896C219.157 557.178 222.418 557.008 225.553 556.251C227.113 555.845 228.637 555.294 230.096 554.57C231.56 553.846 232.894 552.889 234.203 551.858C233.134 553.134 231.857 554.24 230.469 555.21C229.043 556.12 227.498 556.855 225.879 557.385C222.629 558.424 219.171 558.669 215.807 558.4C212.435 558.126 209.134 557.369 205.966 556.286C202.798 555.207 199.744 553.8 196.926 552.029Z" fill="#B5CDFB" stroke="#414042" stroke-width="1"></path>
<path d="M265.761 475.417C268.84 476.666 271.982 477.682 275.143 478.551C278.313 479.383 281.524 480.05 284.762 480.284C287.992 480.567 291.253 480.396 294.388 479.64C295.948 479.233 297.472 478.683 298.931 477.958C300.395 477.235 301.729 476.278 303.038 475.247C301.969 476.522 300.692 477.629 299.304 478.599C297.878 479.508 296.333 480.244 294.714 480.773C291.464 481.813 288.006 482.058 284.642 481.789C281.27 481.515 277.969 480.758 274.801 479.675C271.633 478.596 268.579 477.189 265.761 475.417Z" fill="#B5CDFB" stroke="#414042" stroke-width="1"></path>
<path d="M392.368 564.094C395.802 565.077 399.273 565.838 402.748 566.473C406.229 567.077 409.733 567.519 413.239 567.583C414.991 567.647 416.743 567.585 418.479 567.417C420.219 567.272 421.943 566.98 423.629 566.546C427.005 565.689 430.22 564.155 432.964 561.851C431.81 563.22 430.408 564.378 428.899 565.389C427.37 566.373 425.688 567.107 423.96 567.678C420.49 568.822 416.814 569.163 413.204 569.093C409.584 568.995 405.999 568.475 402.508 567.623C399.016 566.781 395.601 565.625 392.368 564.094Z" fill="#B5CDFB" stroke="#414042" stroke-width="1"></path>
<path d="M670.477 577.126C673.911 578.108 677.381 578.87 680.857 579.505C684.337 580.109 687.842 580.55 691.348 580.615C693.1 580.679 694.851 580.617 696.588 580.448C698.327 580.304 700.052 580.012 701.738 579.578C705.113 578.721 708.328 577.187 711.072 574.882C709.919 576.252 708.516 577.41 707.008 578.42C705.478 579.404 703.796 580.139 702.068 580.709C698.599 581.854 694.923 582.194 691.312 582.125C687.693 582.027 684.107 581.506 680.616 580.655C677.124 579.813 673.71 578.657 670.477 577.126Z" fill="#B5CDFB" stroke="#414042" stroke-width="1"></path>
<path d="M751.103 589.834C754.537 590.817 758.007 591.578 761.483 592.213C764.963 592.817 768.468 593.259 771.974 593.324C773.726 593.387 775.477 593.325 777.214 593.157C778.953 593.012 780.677 592.721 782.364 592.286C785.739 591.43 788.954 589.896 791.698 587.591C790.545 588.96 789.142 590.118 787.634 591.129C786.104 592.113 784.422 592.847 782.694 593.418C779.225 594.562 775.549 594.903 771.938 594.833C768.319 594.735 764.733 594.215 761.242 593.363C757.75 592.521 754.336 591.366 751.103 589.834Z" fill="#B5CDFB" stroke="#414042" stroke-width="1"></path>
<path d="M519.444 498.954C522.878 499.937 526.349 500.698 529.825 501.333C533.305 501.937 536.81 502.378 540.315 502.443C542.067 502.507 543.819 502.445 545.555 502.276C547.295 502.132 549.019 501.84 550.705 501.406C554.081 500.549 557.296 499.015 560.04 496.71C558.886 498.08 557.484 499.238 555.976 500.249C554.446 501.232 552.764 501.967 551.036 502.538C547.566 503.682 543.891 504.022 540.28 503.953C536.661 503.855 533.075 503.334 529.584 502.483C526.092 501.641 522.678 500.485 519.444 498.954Z" fill="#B5CDFB" stroke="#414042" stroke-width="1"></path>
<path d="M503.878 564.094C507.312 565.077 510.782 565.838 514.258 566.473C517.739 567.077 521.243 567.519 524.749 567.583C526.501 567.647 528.253 567.585 529.989 567.417C531.729 567.272 533.453 566.98 535.139 566.546C538.514 565.689 541.729 564.155 544.474 561.851C543.32 563.22 541.917 564.378 540.409 565.389C538.88 566.373 537.197 567.107 535.469 567.678C532 568.822 528.324 569.163 524.714 569.093C521.094 568.995 517.508 568.475 514.017 567.623C510.526 566.781 507.111 565.625 503.878 564.094Z" fill="#B5CDFB" stroke="#414042" stroke-width="1"></path>
<path d="M367.015 456.798C370.449 457.78 373.919 458.542 377.395 459.177C380.875 459.781 384.38 460.222 387.886 460.287C389.638 460.351 391.389 460.289 393.126 460.12C394.865 459.976 396.59 459.684 398.276 459.25C401.651 458.393 404.866 456.859 407.61 454.554C406.457 455.924 405.054 457.082 403.546 458.092C402.016 459.076 400.334 459.811 398.606 460.381C395.137 461.525 391.461 461.866 387.85 461.797C384.231 461.699 380.645 461.178 377.154 460.327C373.662 459.485 370.248 458.329 367.015 456.798Z" fill="#B5CDFB" stroke="#414042" stroke-width="1"></path>
<path d="M356.08 401.525C359.514 402.507 362.984 403.269 366.46 403.904C369.941 404.508 373.445 404.949 376.951 405.014C378.703 405.078 380.455 405.016 382.191 404.847C383.931 404.703 385.655 404.411 387.341 403.977C390.717 403.12 393.931 401.586 396.676 399.281C395.522 400.651 394.119 401.809 392.611 402.819C391.082 403.803 389.4 404.538 387.672 405.108C384.202 406.252 380.526 406.593 376.916 406.524C373.296 406.426 369.71 405.905 366.22 405.054C362.728 404.212 359.313 403.056 356.08 401.525Z" fill="#B5CDFB" stroke="#414042" stroke-width="1"></path>
<path d="M300.484 553.802C303.918 554.784 307.389 555.545 310.865 556.181C314.345 556.785 317.85 557.226 321.355 557.291C323.107 557.354 324.859 557.292 326.595 557.124C328.335 556.979 330.059 556.688 331.745 556.253C335.121 555.397 338.336 553.863 341.08 551.558C339.926 552.928 338.524 554.085 337.016 555.096C335.486 556.08 333.804 556.814 332.076 557.385C328.606 558.529 324.931 558.87 321.32 558.801C317.701 558.703 314.115 558.182 310.624 557.331C307.132 556.489 303.718 555.333 300.484 553.802Z" fill="#B5CDFB" stroke="#414042" stroke-width="1"></path>
<path d="M372.07 510.446C375.504 511.429 378.975 512.19 382.451 512.825C385.931 513.429 389.435 513.871 392.941 513.936C394.693 513.999 396.445 513.937 398.181 513.769C399.921 513.624 401.645 513.333 403.331 512.898C406.707 512.042 409.922 510.507 412.666 508.203C411.512 509.572 410.11 510.73 408.602 511.741C407.072 512.725 405.39 513.459 403.662 514.03C400.192 515.174 396.517 515.515 392.906 515.445C389.287 515.347 385.701 514.827 382.21 513.975C378.718 513.133 375.304 511.978 372.07 510.446Z" fill="#B5CDFB" stroke="#414042" stroke-width="1"></path>
<path d="M78.9004 573.873C82.3344 574.855 85.8048 575.616 89.2806 576.251C92.7612 576.855 96.2655 577.297 99.7715 577.362C101.523 577.425 103.275 577.363 105.011 577.195C106.751 577.05 108.475 576.759 110.161 576.324C113.537 575.468 116.752 573.934 119.496 571.629C118.342 572.999 116.94 574.156 115.432 575.167C113.902 576.151 112.22 576.885 110.492 577.456C107.022 578.6 103.347 578.941 99.7361 578.872C96.1166 578.773 92.5308 578.253 89.0399 577.401C85.5482 576.56 82.1337 575.404 78.9004 573.873Z" fill="#B5CDFB" stroke="#414042" stroke-width="1"></path>
<path d="M330.604 515.592C331.659 515.968 332.706 516.343 333.773 516.663C334.829 517.008 335.893 517.328 336.965 517.607C339.106 518.17 341.264 518.652 343.445 518.93C345.622 519.21 347.826 519.297 349.99 519.014C351.073 518.881 352.145 518.633 353.162 518.23C354.196 517.863 355.164 517.323 356.08 516.678C354.513 518.291 352.347 519.312 350.112 519.734C347.872 520.204 345.566 520.138 343.324 519.871C341.082 519.561 338.878 519.042 336.753 518.303C334.628 517.573 332.549 516.707 330.604 515.592Z" fill="#B5CDFB" stroke="#414042" stroke-width="1"></path>
</g>
<defs>
<clipPath id="clip0">
<rect width="800" height="600" fill="white" stroke="#414042" stroke-width="1"></rect>
</clipPath>
</defs>
</svg>
